<svg width="108" height="111" viewBox="0 0 108 111" fill="none" xmlns="http://www.w3.org/2000/svg">
<path d="M64.2295 42.1132C63.8438 40.997 63.2486 39.9821 62.4923 39.1178C60.8836 37.2794 58.546 36.1224 55.944 36.1224H49.1438C44.8128 36.1224 41.3018 39.7137 41.3018 44.1438C41.3018 47.9134 43.8678 51.1744 47.4681 51.9799L57.8214 54.2965C61.8546 55.199 64.7294 58.8549 64.7294 63.0779C64.7294 68.0408 60.796 72.0675 55.944 72.0675H50.0872C46.2619 72.0675 43.0077 69.5668 41.8017 66.0766" stroke="#14402F" stroke-width="9.86419" stroke-linecap="round" stroke-linejoin="round"/>
<path d="M53.0166 36.1238V27.1375" stroke="#14402F" stroke-width="9.86419" stroke-linecap="round" stroke-linejoin="round"/>
<path d="M53.0166 81.0539V72.0679" stroke="#14402F" stroke-width="9.86419" stroke-linecap="round" stroke-linejoin="round"/>
<path d="M16.3877 105.212V85.9554H35.2133" stroke="#14402F" stroke-width="9.86419" stroke-linecap="round" stroke-linejoin="round"/>
<path d="M102.157 45.9443C106.841 71.4236 91.5971 96.6839 66.7094 103.504C47.6613 108.725 28.2258 101.703 16.3887 87.1528" stroke="#14402F" stroke-width="9.86419" stroke-linecap="round" stroke-linejoin="round"/>
<path d="M5.94972 64.3694C1.26559 38.89 16.5092 13.6301 41.3969 6.80896C60.4438 1.58864 79.8781 8.60999 91.7156 23.1579" stroke="#14402F" stroke-width="9.86419" stroke-linecap="round" stroke-linejoin="round"/>
<path d="M91.7117 5.1037V24.3599H72.8857" stroke="#14402F" stroke-width="9.86419" stroke-linecap="round" stroke-linejoin="round"/>
</svg>
